<?xml version="1.0" encoding="utf-8" standalone="no"?>
<!DOCTYPE svg PUBLIC "-//W3C//DTD SVG 1.1//EN"
  "http://www.w3.org/Graphics/SVG/1.1/DTD/svg11.dtd">
<svg xmlns:xlink="http://www.w3.org/1999/xlink" width="576pt" height="360pt" viewBox="0 0 576 360" xmlns="http://www.w3.org/2000/svg" version="1.1">
 <metadata>
  <rdf:RDF xmlns:dc="http://purl.org/dc/elements/1.1/" xmlns:cc="http://creativecommons.org/ns#" xmlns:rdf="http://www.w3.org/1999/02/22-rdf-syntax-ns#">
   <cc:Work>
    <dc:type rdf:resource="http://purl.org/dc/dcmitype/StillImage"/>
    <dc:date>2026-09-16T14:00:10.064385</dc:date>
    <dc:format>image/svg+xml</dc:format>
    <dc:creator>
     <cc:Agent>
      <dc:title>Matplotlib v3.11.1, https://matplotlib.org/</dc:title>
     </cc:Agent>
    </dc:creator>
   </cc:Work>
  </rdf:RDF>
 </metadata>
 <defs>
  <style type="text/css">*{stroke-linejoin: round; stroke-linecap: butt}</style>
 </defs>
 <g id="figure_1">
  <g id="patch_1">
   <path d="M 0 360 
L 576 360 
L 576 0 
L 0 0 
z
" style="fill: #ffffff"/>
  </g>
  <g id="axes_1">
   <g id="patch_2">
    <path d="M 58.042344 317.877656 
L 565.2 317.877656 
L 565.2 26.16 
L 58.042344 26.16 
z
" style="fill: #ffffff"/>
   </g>
   <g id="matplotlib.axis_1">
    <g id="xtick_1">
     <g id="line2d_1">
      <path d="M 76.390348 317.877656 
L 76.390348 26.16 
" clip-path="url(#peeb2245523)" style="fill: none; stroke: #b0b0b0; stroke-width: 0.8; stroke-linecap: square"/>
     </g>
     <g id="line2d_2">
      <defs>
       <path id="mefec83deac" d="M 0 0 
L 0 3.5 
" style="stroke: #000000; stroke-width: 0.8"/>
      </defs>
      <g>
       <use xlink:href="#mefec83deac" x="76.390348" y="317.877656" style="stroke: #000000; stroke-width: 0.8"/>
      </g>
     </g>
     <g id="text_1">
      <!-- 0 -->
      <g transform="translate(73.209098 332.475312) scale(0.1 -0.1)">
       <defs>
        <path id="DejaVuSans-13" d="M 2034 4250 
Q 1547 4250 1301 3770 
Q 1056 3291 1056 2328 
Q 1056 1369 1301 889 
Q 1547 409 2034 409 
Q 2525 409 2770 889 
Q 3016 1369 3016 2328 
Q 3016 3291 2770 3770 
Q 2525 4250 2034 4250 
z
M 2034 4750 
Q 2819 4750 3233 4129 
Q 3647 3509 3647 2328 
Q 3647 1150 3233 529 
Q 2819 -91 2034 -91 
Q 1250 -91 836 529 
Q 422 1150 422 2328 
Q 422 3509 836 4129 
Q 1250 4750 2034 4750 
z
" transform="scale(0.015625)"/>
       </defs>
       <use xlink:href="#DejaVuSans-13"/>
      </g>
     </g>
    </g>
    <g id="xtick_2">
     <g id="line2d_3">
      <path d="M 170.482678 317.877656 
L 170.482678 26.16 
" clip-path="url(#peeb2245523)" style="fill: none; stroke: #b0b0b0; stroke-width: 0.8; stroke-linecap: square"/>
     </g>
     <g id="line2d_4">
      <g>
       <use xlink:href="#mefec83deac" x="170.482678" y="317.877656" style="stroke: #000000; stroke-width: 0.8"/>
      </g>
     </g>
     <g id="text_2">
      <!-- 20 -->
      <g transform="translate(164.120178 332.475312) scale(0.1 -0.1)">
       <defs>
        <path id="DejaVuSans-15" d="M 1228 531 
L 3431 531 
L 3431 0 
L 469 0 
L 469 531 
Q 828 903 1448 1529 
Q 2069 2156 2228 2338 
Q 2531 2678 2651 2914 
Q 2772 3150 2772 3378 
Q 2772 3750 2511 3984 
Q 2250 4219 1831 4219 
Q 1534 4219 1204 4116 
Q 875 4013 500 3803 
L 500 4441 
Q 881 4594 1212 4672 
Q 1544 4750 1819 4750 
Q 2544 4750 2975 4387 
Q 3406 4025 3406 3419 
Q 3406 3131 3298 2873 
Q 3191 2616 2906 2266 
Q 2828 2175 2409 1742 
Q 1991 1309 1228 531 
z
" transform="scale(0.015625)"/>
       </defs>
       <use xlink:href="#DejaVuSans-15"/>
       <use xlink:href="#DejaVuSans-13" transform="translate(63.625 0)"/>
      </g>
     </g>
    </g>
    <g id="xtick_3">
     <g id="line2d_5">
      <path d="M 264.575007 317.877656 
L 264.575007 26.16 
" clip-path="url(#peeb2245523)" style="fill: none; stroke: #b0b0b0; stroke-width: 0.8; stroke-linecap: square"/>
     </g>
     <g id="line2d_6">
      <g>
       <use xlink:href="#mefec83deac" x="264.575007" y="317.877656" style="stroke: #000000; stroke-width: 0.8"/>
      </g>
     </g>
     <g id="text_3">
      <!-- 40 -->
      <g transform="translate(258.212507 332.475312) scale(0.1 -0.1)">
       <defs>
        <path id="DejaVuSans-17" d="M 2419 4116 
L 825 1625 
L 2419 1625 
L 2419 4116 
z
M 2253 4666 
L 3047 4666 
L 3047 1625 
L 3713 1625 
L 3713 1100 
L 3047 1100 
L 3047 0 
L 2419 0 
L 2419 1100 
L 313 1100 
L 313 1709 
L 2253 4666 
z
" transform="scale(0.015625)"/>
       </defs>
       <use xlink:href="#DejaVuSans-17"/>
       <use xlink:href="#DejaVuSans-13" transform="translate(63.625 0)"/>
      </g>
     </g>
    </g>
    <g id="xtick_4">
     <g id="line2d_7">
      <path d="M 358.667337 317.877656 
L 358.667337 26.16 
" clip-path="url(#peeb2245523)" style="fill: none; stroke: #b0b0b0; stroke-width: 0.8; stroke-linecap: square"/>
     </g>
     <g id="line2d_8">
      <g>
       <use xlink:href="#mefec83deac" x="358.667337" y="317.877656" style="stroke: #000000; stroke-width: 0.8"/>
      </g>
     </g>
     <g id="text_4">
      <!-- 60 -->
      <g transform="translate(352.304837 332.475312) scale(0.1 -0.1)">
       <defs>
        <path id="DejaVuSans-19" d="M 2113 2584 
Q 1688 2584 1439 2293 
Q 1191 2003 1191 1497 
Q 1191 994 1439 701 
Q 1688 409 2113 409 
Q 2538 409 2786 701 
Q 3034 994 3034 1497 
Q 3034 2003 2786 2293 
Q 2538 2584 2113 2584 
z
M 3366 4563 
L 3366 3988 
Q 3128 4100 2886 4159 
Q 2644 4219 2406 4219 
Q 1781 4219 1451 3797 
Q 1122 3375 1075 2522 
Q 1259 2794 1537 2939 
Q 1816 3084 2150 3084 
Q 2853 3084 3261 2657 
Q 3669 2231 3669 1497 
Q 3669 778 3244 343 
Q 2819 -91 2113 -91 
Q 1303 -91 875 529 
Q 447 1150 447 2328 
Q 447 3434 972 4092 
Q 1497 4750 2381 4750 
Q 2619 4750 2861 4703 
Q 3103 4656 3366 4563 
z
" transform="scale(0.015625)"/>
       </defs>
       <use xlink:href="#DejaVuSans-19"/>
       <use xlink:href="#DejaVuSans-13" transform="translate(63.625 0)"/>
      </g>
     </g>
    </g>
    <g id="xtick_5">
     <g id="line2d_9">
      <path d="M 452.759666 317.877656 
L 452.759666 26.16 
" clip-path="url(#peeb2245523)" style="fill: none; stroke: #b0b0b0; stroke-width: 0.8; stroke-linecap: square"/>
     </g>
     <g id="line2d_10">
      <g>
       <use xlink:href="#mefec83deac" x="452.759666" y="317.877656" style="stroke: #000000; stroke-width: 0.8"/>
      </g>
     </g>
     <g id="text_5">
      <!-- 80 -->
      <g transform="translate(446.397166 332.475312) scale(0.1 -0.1)">
       <defs>
        <path id="DejaVuSans-1b" d="M 2034 2216 
Q 1584 2216 1326 1975 
Q 1069 1734 1069 1313 
Q 1069 891 1326 650 
Q 1584 409 2034 409 
Q 2484 409 2743 651 
Q 3003 894 3003 1313 
Q 3003 1734 2745 1975 
Q 2488 2216 2034 2216 
z
M 1403 2484 
Q 997 2584 770 2862 
Q 544 3141 544 3541 
Q 544 4100 942 4425 
Q 1341 4750 2034 4750 
Q 2731 4750 3128 4425 
Q 3525 4100 3525 3541 
Q 3525 3141 3298 2862 
Q 3072 2584 2669 2484 
Q 3125 2378 3379 2068 
Q 3634 1759 3634 1313 
Q 3634 634 3220 271 
Q 2806 -91 2034 -91 
Q 1263 -91 848 271 
Q 434 634 434 1313 
Q 434 1759 690 2068 
Q 947 2378 1403 2484 
z
M 1172 3481 
Q 1172 3119 1398 2916 
Q 1625 2713 2034 2713 
Q 2441 2713 2670 2916 
Q 2900 3119 2900 3481 
Q 2900 3844 2670 4047 
Q 2441 4250 2034 4250 
Q 1625 4250 1398 4047 
Q 1172 3844 1172 3481 
z
" transform="scale(0.015625)"/>
       </defs>
       <use xlink:href="#DejaVuSans-1b"/>
       <use xlink:href="#DejaVuSans-13" transform="translate(63.625 0)"/>
      </g>
     </g>
    </g>
    <g id="xtick_6">
     <g id="line2d_11">
      <path d="M 546.851996 317.877656 
L 546.851996 26.16 
" clip-path="url(#peeb2245523)" style="fill: none; stroke: #b0b0b0; stroke-width: 0.8; stroke-linecap: square"/>
     </g>
     <g id="line2d_12">
      <g>
       <use xlink:href="#mefec83deac" x="546.851996" y="317.877656" style="stroke: #000000; stroke-width: 0.8"/>
      </g>
     </g>
     <g id="text_6">
      <!-- 100 -->
      <g transform="translate(537.308246 332.475312) scale(0.1 -0.1)">
       <defs>
        <path id="DejaVuSans-14" d="M 794 531 
L 1825 531 
L 1825 4091 
L 703 3866 
L 703 4441 
L 1819 4666 
L 2450 4666 
L 2450 531 
L 3481 531 
L 3481 0 
L 794 0 
L 794 531 
z
" transform="scale(0.015625)"/>
       </defs>
       <use xlink:href="#DejaVuSans-14"/>
       <use xlink:href="#DejaVuSans-13" transform="translate(63.625 0)"/>
       <use xlink:href="#DejaVuSans-13" transform="translate(127.25 0)"/>
      </g>
     </g>
    </g>
    <g id="text_7">
     <!-- Wealth -->
     <g transform="translate(294.311797 346.476094) scale(0.1 -0.1)">
      <defs>
       <path id="DejaVuSans-3a" d="M 213 4666 
L 850 4666 
L 1831 722 
L 2809 4666 
L 3519 4666 
L 4500 722 
L 5478 4666 
L 6119 4666 
L 4947 0 
L 4153 0 
L 3169 4050 
L 2175 0 
L 1381 0 
L 213 4666 
z
" transform="scale(0.015625)"/>
       <path id="DejaVuSans-48" d="M 3597 1894 
L 3597 1613 
L 953 1613 
Q 991 1019 1311 708 
Q 1631 397 2203 397 
Q 2534 397 2845 478 
Q 3156 559 3463 722 
L 3463 178 
Q 3153 47 2828 -22 
Q 2503 -91 2169 -91 
Q 1331 -91 842 396 
Q 353 884 353 1716 
Q 353 2575 817 3079 
Q 1281 3584 2069 3584 
Q 2775 3584 3186 3129 
Q 3597 2675 3597 1894 
z
M 3022 2063 
Q 3016 2534 2758 2815 
Q 2500 3097 2075 3097 
Q 1594 3097 1305 2825 
Q 1016 2553 972 2059 
L 3022 2063 
z
" transform="scale(0.015625)"/>
       <path id="DejaVuSans-44" d="M 2194 1759 
Q 1497 1759 1228 1600 
Q 959 1441 959 1056 
Q 959 750 1161 570 
Q 1363 391 1709 391 
Q 2188 391 2477 730 
Q 2766 1069 2766 1631 
L 2766 1759 
L 2194 1759 
z
M 3341 1997 
L 3341 0 
L 2766 0 
L 2766 531 
Q 2569 213 2275 61 
Q 1981 -91 1556 -91 
Q 1019 -91 701 211 
Q 384 513 384 1019 
Q 384 1609 779 1909 
Q 1175 2209 1959 2209 
L 2766 2209 
L 2766 2266 
Q 2766 2663 2505 2880 
Q 2244 3097 1772 3097 
Q 1472 3097 1187 3025 
Q 903 2953 641 2809 
L 641 3341 
Q 956 3463 1253 3523 
Q 1550 3584 1831 3584 
Q 2591 3584 2966 3190 
Q 3341 2797 3341 1997 
z
" transform="scale(0.015625)"/>
       <path id="DejaVuSans-4f" d="M 603 4863 
L 1178 4863 
L 1178 0 
L 603 0 
L 603 4863 
z
" transform="scale(0.015625)"/>
       <path id="DejaVuSans-57" d="M 1172 4494 
L 1172 3500 
L 2356 3500 
L 2356 3053 
L 1172 3053 
L 1172 1153 
Q 1172 725 1289 603 
Q 1406 481 1766 481 
L 2356 481 
L 2356 0 
L 1766 0 
Q 1100 0 847 248 
Q 594 497 594 1153 
L 594 3053 
L 172 3053 
L 172 3500 
L 594 3500 
L 594 4494 
L 1172 4494 
z
" transform="scale(0.015625)"/>
       <path id="DejaVuSans-4b" d="M 3513 2113 
L 3513 0 
L 2938 0 
L 2938 2094 
Q 2938 2591 2744 2837 
Q 2550 3084 2163 3084 
Q 1697 3084 1428 2787 
Q 1159 2491 1159 1978 
L 1159 0 
L 581 0 
L 581 4863 
L 1159 4863 
L 1159 2956 
Q 1366 3272 1645 3428 
Q 1925 3584 2291 3584 
Q 2894 3584 3203 3211 
Q 3513 2838 3513 2113 
z
" transform="scale(0.015625)"/>
      </defs>
      <use xlink:href="#DejaVuSans-3a"/>
      <use xlink:href="#DejaVuSans-48" transform="translate(93.015625 0)"/>
      <use xlink:href="#DejaVuSans-44" transform="translate(154.546875 0)"/>
      <use xlink:href="#DejaVuSans-4f" transform="translate(215.828125 0)"/>
      <use xlink:href="#DejaVuSans-57" transform="translate(243.609375 0)"/>
      <use xlink:href="#DejaVuSans-4b" transform="translate(282.8125 0)"/>
     </g>
    </g>
   </g>
   <g id="matplotlib.axis_2">
    <g id="ytick_1">
     <g id="line2d_13">
      <path d="M 58.042344 275.107821 
L 565.2 275.107821 
" clip-path="url(#peeb2245523)" style="fill: none; stroke: #b0b0b0; stroke-width: 0.8; stroke-linecap: square"/>
     </g>
     <g id="line2d_14">
      <defs>
       <path id="m9e81e6df9a" d="M 0 0 
L -3.5 0 
" style="stroke: #000000; stroke-width: 0.8"/>
      </defs>
      <g>
       <use xlink:href="#m9e81e6df9a" x="58.042344" y="275.107821" style="stroke: #000000; stroke-width: 0.8"/>
      </g>
     </g>
     <g id="text_8">
      <!-- $\mathdefault{10^{-1}}$ -->
      <g transform="translate(27.542344 279.757821) scale(0.1 -0.1)">
       <defs>
        <path id="DejaVuSans-c9c" d="M 678 2272 
L 4684 2272 
L 4684 1741 
L 678 1741 
L 678 2272 
z
" transform="scale(0.015625)"/>
       </defs>
       <use xlink:href="#DejaVuSans-14" transform="translate(0 0.665625)"/>
       <use xlink:href="#DejaVuSans-13" transform="translate(63.623047 0.665625)"/>
       <use xlink:href="#DejaVuSans-c9c" transform="translate(128.203125 41.965625) scale(0.7)"/>
       <use xlink:href="#DejaVuSans-14" transform="translate(186.855469 41.965625) scale(0.7)"/>
      </g>
     </g>
    </g>
    <g id="ytick_2">
     <g id="line2d_15">
      <path d="M 58.042344 218.670375 
L 565.2 218.670375 
" clip-path="url(#peeb2245523)" style="fill: none; stroke: #b0b0b0; stroke-width: 0.8; stroke-linecap: square"/>
     </g>
     <g id="line2d_16">
      <g>
       <use xlink:href="#m9e81e6df9a" x="58.042344" y="218.670375" style="stroke: #000000; stroke-width: 0.8"/>
      </g>
     </g>
     <g id="text_9">
      <!-- $\mathdefault{10^{0}}$ -->
      <g transform="translate(33.442344 223.370375) scale(0.1 -0.1)">
       <use xlink:href="#DejaVuSans-14" transform="translate(0 0.746875)"/>
       <use xlink:href="#DejaVuSans-13" transform="translate(63.623047 0.746875)"/>
       <use xlink:href="#DejaVuSans-13" transform="translate(128.203125 42.046875) scale(0.7)"/>
      </g>
     </g>
    </g>
    <g id="ytick_3">
     <g id="line2d_17">
      <path d="M 58.042344 162.232928 
L 565.2 162.232928 
" clip-path="url(#peeb2245523)" style="fill: none; stroke: #b0b0b0; stroke-width: 0.8; stroke-linecap: square"/>
     </g>
     <g id="line2d_18">
      <g>
       <use xlink:href="#m9e81e6df9a" x="58.042344" y="162.232928" style="stroke: #000000; stroke-width: 0.8"/>
      </g>
     </g>
     <g id="text_10">
      <!-- $\mathdefault{10^{1}}$ -->
      <g transform="translate(33.442344 166.882928) scale(0.1 -0.1)">
       <use xlink:href="#DejaVuSans-14" transform="translate(0 0.665625)"/>
       <use xlink:href="#DejaVuSans-13" transform="translate(63.623047 0.665625)"/>
       <use xlink:href="#DejaVuSans-14" transform="translate(128.203125 41.965625) scale(0.7)"/>
      </g>
     </g>
    </g>
    <g id="ytick_4">
     <g id="line2d_19">
      <path d="M 58.042344 105.795481 
L 565.2 105.795481 
" clip-path="url(#peeb2245523)" style="fill: none; stroke: #b0b0b0; stroke-width: 0.8; stroke-linecap: square"/>
     </g>
     <g id="line2d_20">
      <g>
       <use xlink:href="#m9e81e6df9a" x="58.042344" y="105.795481" style="stroke: #000000; stroke-width: 0.8"/>
      </g>
     </g>
     <g id="text_11">
      <!-- $\mathdefault{10^{2}}$ -->
      <g transform="translate(33.442344 110.495481) scale(0.1 -0.1)">
       <use xlink:href="#DejaVuSans-14" transform="translate(0 0.746875)"/>
       <use xlink:href="#DejaVuSans-13" transform="translate(63.623047 0.746875)"/>
       <use xlink:href="#DejaVuSans-15" transform="translate(128.203125 42.046875) scale(0.7)"/>
      </g>
     </g>
    </g>
    <g id="ytick_5">
     <g id="line2d_21">
      <path d="M 58.042344 49.358035 
L 565.2 49.358035 
" clip-path="url(#peeb2245523)" style="fill: none; stroke: #b0b0b0; stroke-width: 0.8; stroke-linecap: square"/>
     </g>
     <g id="line2d_22">
      <g>
       <use xlink:href="#m9e81e6df9a" x="58.042344" y="49.358035" style="stroke: #000000; stroke-width: 0.8"/>
      </g>
     </g>
     <g id="text_12">
      <!-- $\mathdefault{10^{3}}$ -->
      <g transform="translate(33.442344 54.058035) scale(0.1 -0.1)">
       <defs>
        <path id="DejaVuSans-16" d="M 2597 2516 
Q 3050 2419 3304 2112 
Q 3559 1806 3559 1356 
Q 3559 666 3084 287 
Q 2609 -91 1734 -91 
Q 1441 -91 1130 -33 
Q 819 25 488 141 
L 488 750 
Q 750 597 1062 519 
Q 1375 441 1716 441 
Q 2309 441 2620 675 
Q 2931 909 2931 1356 
Q 2931 1769 2642 2001 
Q 2353 2234 1838 2234 
L 1294 2234 
L 1294 2753 
L 1863 2753 
Q 2328 2753 2575 2939 
Q 2822 3125 2822 3475 
Q 2822 3834 2567 4026 
Q 2313 4219 1838 4219 
Q 1578 4219 1281 4162 
Q 984 4106 628 3988 
L 628 4550 
Q 988 4650 1302 4700 
Q 1616 4750 1894 4750 
Q 2613 4750 3031 4423 
Q 3450 4097 3450 3541 
Q 3450 3153 3228 2886 
Q 3006 2619 2597 2516 
z
" transform="scale(0.015625)"/>
       </defs>
       <use xlink:href="#DejaVuSans-14" transform="translate(0 0.746875)"/>
       <use xlink:href="#DejaVuSans-13" transform="translate(63.623047 0.746875)"/>
       <use xlink:href="#DejaVuSans-16" transform="translate(128.203125 42.046875) scale(0.7)"/>
      </g>
     </g>
    </g>
    <g id="ytick_6">
     <g id="line2d_23">
      <defs>
       <path id="m0438843355" d="M 0 0 
L -2 0 
" style="stroke: #000000; stroke-width: 0.6"/>
      </defs>
      <g>
       <use xlink:href="#m0438843355" x="58.042344" y="314.555904" style="stroke: #000000; stroke-width: 0.6"/>
      </g>
     </g>
    </g>
    <g id="ytick_7">
     <g id="line2d_24">
      <g>
       <use xlink:href="#m0438843355" x="58.042344" y="304.617763" style="stroke: #000000; stroke-width: 0.6"/>
      </g>
     </g>
    </g>
    <g id="ytick_8">
     <g id="line2d_25">
      <g>
       <use xlink:href="#m0438843355" x="58.042344" y="297.566539" style="stroke: #000000; stroke-width: 0.6"/>
      </g>
     </g>
    </g>
    <g id="ytick_9">
     <g id="line2d_26">
      <g>
       <use xlink:href="#m0438843355" x="58.042344" y="292.097186" style="stroke: #000000; stroke-width: 0.6"/>
      </g>
     </g>
    </g>
    <g id="ytick_10">
     <g id="line2d_27">
      <g>
       <use xlink:href="#m0438843355" x="58.042344" y="287.628398" style="stroke: #000000; stroke-width: 0.6"/>
      </g>
     </g>
    </g>
    <g id="ytick_11">
     <g id="line2d_28">
      <g>
       <use xlink:href="#m0438843355" x="58.042344" y="283.850093" style="stroke: #000000; stroke-width: 0.6"/>
      </g>
     </g>
    </g>
    <g id="ytick_12">
     <g id="line2d_29">
      <g>
       <use xlink:href="#m0438843355" x="58.042344" y="280.577175" style="stroke: #000000; stroke-width: 0.6"/>
      </g>
     </g>
    </g>
    <g id="ytick_13">
     <g id="line2d_30">
      <g>
       <use xlink:href="#m0438843355" x="58.042344" y="277.690257" style="stroke: #000000; stroke-width: 0.6"/>
      </g>
     </g>
    </g>
    <g id="ytick_14">
     <g id="line2d_31">
      <g>
       <use xlink:href="#m0438843355" x="58.042344" y="258.118457" style="stroke: #000000; stroke-width: 0.6"/>
      </g>
     </g>
    </g>
    <g id="ytick_15">
     <g id="line2d_32">
      <g>
       <use xlink:href="#m0438843355" x="58.042344" y="248.180316" style="stroke: #000000; stroke-width: 0.6"/>
      </g>
     </g>
    </g>
    <g id="ytick_16">
     <g id="line2d_33">
      <g>
       <use xlink:href="#m0438843355" x="58.042344" y="241.129093" style="stroke: #000000; stroke-width: 0.6"/>
      </g>
     </g>
    </g>
    <g id="ytick_17">
     <g id="line2d_34">
      <g>
       <use xlink:href="#m0438843355" x="58.042344" y="235.659739" style="stroke: #000000; stroke-width: 0.6"/>
      </g>
     </g>
    </g>
    <g id="ytick_18">
     <g id="line2d_35">
      <g>
       <use xlink:href="#m0438843355" x="58.042344" y="231.190952" style="stroke: #000000; stroke-width: 0.6"/>
      </g>
     </g>
    </g>
    <g id="ytick_19">
     <g id="line2d_36">
      <g>
       <use xlink:href="#m0438843355" x="58.042344" y="227.412646" style="stroke: #000000; stroke-width: 0.6"/>
      </g>
     </g>
    </g>
    <g id="ytick_20">
     <g id="line2d_37">
      <g>
       <use xlink:href="#m0438843355" x="58.042344" y="224.139728" style="stroke: #000000; stroke-width: 0.6"/>
      </g>
     </g>
    </g>
    <g id="ytick_21">
     <g id="line2d_38">
      <g>
       <use xlink:href="#m0438843355" x="58.042344" y="221.252811" style="stroke: #000000; stroke-width: 0.6"/>
      </g>
     </g>
    </g>
    <g id="ytick_22">
     <g id="line2d_39">
      <g>
       <use xlink:href="#m0438843355" x="58.042344" y="201.68101" style="stroke: #000000; stroke-width: 0.6"/>
      </g>
     </g>
    </g>
    <g id="ytick_23">
     <g id="line2d_40">
      <g>
       <use xlink:href="#m0438843355" x="58.042344" y="191.742869" style="stroke: #000000; stroke-width: 0.6"/>
      </g>
     </g>
    </g>
    <g id="ytick_24">
     <g id="line2d_41">
      <g>
       <use xlink:href="#m0438843355" x="58.042344" y="184.691646" style="stroke: #000000; stroke-width: 0.6"/>
      </g>
     </g>
    </g>
    <g id="ytick_25">
     <g id="line2d_42">
      <g>
       <use xlink:href="#m0438843355" x="58.042344" y="179.222292" style="stroke: #000000; stroke-width: 0.6"/>
      </g>
     </g>
    </g>
    <g id="ytick_26">
     <g id="line2d_43">
      <g>
       <use xlink:href="#m0438843355" x="58.042344" y="174.753505" style="stroke: #000000; stroke-width: 0.6"/>
      </g>
     </g>
    </g>
    <g id="ytick_27">
     <g id="line2d_44">
      <g>
       <use xlink:href="#m0438843355" x="58.042344" y="170.975199" style="stroke: #000000; stroke-width: 0.6"/>
      </g>
     </g>
    </g>
    <g id="ytick_28">
     <g id="line2d_45">
      <g>
       <use xlink:href="#m0438843355" x="58.042344" y="167.702282" style="stroke: #000000; stroke-width: 0.6"/>
      </g>
     </g>
    </g>
    <g id="ytick_29">
     <g id="line2d_46">
      <g>
       <use xlink:href="#m0438843355" x="58.042344" y="164.815364" style="stroke: #000000; stroke-width: 0.6"/>
      </g>
     </g>
    </g>
    <g id="ytick_30">
     <g id="line2d_47">
      <g>
       <use xlink:href="#m0438843355" x="58.042344" y="145.243564" style="stroke: #000000; stroke-width: 0.6"/>
      </g>
     </g>
    </g>
    <g id="ytick_31">
     <g id="line2d_48">
      <g>
       <use xlink:href="#m0438843355" x="58.042344" y="135.305423" style="stroke: #000000; stroke-width: 0.6"/>
      </g>
     </g>
    </g>
    <g id="ytick_32">
     <g id="line2d_49">
      <g>
       <use xlink:href="#m0438843355" x="58.042344" y="128.254199" style="stroke: #000000; stroke-width: 0.6"/>
      </g>
     </g>
    </g>
    <g id="ytick_33">
     <g id="line2d_50">
      <g>
       <use xlink:href="#m0438843355" x="58.042344" y="122.784846" style="stroke: #000000; stroke-width: 0.6"/>
      </g>
     </g>
    </g>
    <g id="ytick_34">
     <g id="line2d_51">
      <g>
       <use xlink:href="#m0438843355" x="58.042344" y="118.316058" style="stroke: #000000; stroke-width: 0.6"/>
      </g>
     </g>
    </g>
    <g id="ytick_35">
     <g id="line2d_52">
      <g>
       <use xlink:href="#m0438843355" x="58.042344" y="114.537752" style="stroke: #000000; stroke-width: 0.6"/>
      </g>
     </g>
    </g>
    <g id="ytick_36">
     <g id="line2d_53">
      <g>
       <use xlink:href="#m0438843355" x="58.042344" y="111.264835" style="stroke: #000000; stroke-width: 0.6"/>
      </g>
     </g>
    </g>
    <g id="ytick_37">
     <g id="line2d_54">
      <g>
       <use xlink:href="#m0438843355" x="58.042344" y="108.377917" style="stroke: #000000; stroke-width: 0.6"/>
      </g>
     </g>
    </g>
    <g id="ytick_38">
     <g id="line2d_55">
      <g>
       <use xlink:href="#m0438843355" x="58.042344" y="88.806117" style="stroke: #000000; stroke-width: 0.6"/>
      </g>
     </g>
    </g>
    <g id="ytick_39">
     <g id="line2d_56">
      <g>
       <use xlink:href="#m0438843355" x="58.042344" y="78.867976" style="stroke: #000000; stroke-width: 0.6"/>
      </g>
     </g>
    </g>
    <g id="ytick_40">
     <g id="line2d_57">
      <g>
       <use xlink:href="#m0438843355" x="58.042344" y="71.816753" style="stroke: #000000; stroke-width: 0.6"/>
      </g>
     </g>
    </g>
    <g id="ytick_41">
     <g id="line2d_58">
      <g>
       <use xlink:href="#m0438843355" x="58.042344" y="66.347399" style="stroke: #000000; stroke-width: 0.6"/>
      </g>
     </g>
    </g>
    <g id="ytick_42">
     <g id="line2d_59">
      <g>
       <use xlink:href="#m0438843355" x="58.042344" y="61.878612" style="stroke: #000000; stroke-width: 0.6"/>
      </g>
     </g>
    </g>
    <g id="ytick_43">
     <g id="line2d_60">
      <g>
       <use xlink:href="#m0438843355" x="58.042344" y="58.100306" style="stroke: #000000; stroke-width: 0.6"/>
      </g>
     </g>
    </g>
    <g id="ytick_44">
     <g id="line2d_61">
      <g>
       <use xlink:href="#m0438843355" x="58.042344" y="54.827388" style="stroke: #000000; stroke-width: 0.6"/>
      </g>
     </g>
    </g>
    <g id="ytick_45">
     <g id="line2d_62">
      <g>
       <use xlink:href="#m0438843355" x="58.042344" y="51.94047" style="stroke: #000000; stroke-width: 0.6"/>
      </g>
     </g>
    </g>
    <g id="ytick_46">
     <g id="line2d_63">
      <g>
       <use xlink:href="#m0438843355" x="58.042344" y="32.36867" style="stroke: #000000; stroke-width: 0.6"/>
      </g>
     </g>
    </g>
    <g id="text_13">
     <!-- political_strength -->
     <g transform="translate(21.14 215.140703) rotate(-90) scale(0.1 -0.1)">
      <defs>
       <path id="DejaVuSans-53" d="M 1159 525 
L 1159 -1331 
L 581 -1331 
L 581 3500 
L 1159 3500 
L 1159 2969 
Q 1341 3281 1617 3432 
Q 1894 3584 2278 3584 
Q 2916 3584 3314 3078 
Q 3713 2572 3713 1747 
Q 3713 922 3314 415 
Q 2916 -91 2278 -91 
Q 1894 -91 1617 61 
Q 1341 213 1159 525 
z
M 3116 1747 
Q 3116 2381 2855 2742 
Q 2594 3103 2138 3103 
Q 1681 3103 1420 2742 
Q 1159 2381 1159 1747 
Q 1159 1113 1420 752 
Q 1681 391 2138 391 
Q 2594 391 2855 752 
Q 3116 1113 3116 1747 
z
" transform="scale(0.015625)"/>
       <path id="DejaVuSans-52" d="M 1959 3097 
Q 1497 3097 1228 2736 
Q 959 2375 959 1747 
Q 959 1119 1226 758 
Q 1494 397 1959 397 
Q 2419 397 2687 759 
Q 2956 1122 2956 1747 
Q 2956 2369 2687 2733 
Q 2419 3097 1959 3097 
z
M 1959 3584 
Q 2709 3584 3137 3096 
Q 3566 2609 3566 1747 
Q 3566 888 3137 398 
Q 2709 -91 1959 -91 
Q 1206 -91 779 398 
Q 353 888 353 1747 
Q 353 2609 779 3096 
Q 1206 3584 1959 3584 
z
" transform="scale(0.015625)"/>
       <path id="DejaVuSans-4c" d="M 603 3500 
L 1178 3500 
L 1178 0 
L 603 0 
L 603 3500 
z
M 603 4863 
L 1178 4863 
L 1178 4134 
L 603 4134 
L 603 4863 
z
" transform="scale(0.015625)"/>
       <path id="DejaVuSans-46" d="M 3122 3366 
L 3122 2828 
Q 2878 2963 2633 3030 
Q 2388 3097 2138 3097 
Q 1578 3097 1268 2742 
Q 959 2388 959 1747 
Q 959 1106 1268 751 
Q 1578 397 2138 397 
Q 2388 397 2633 464 
Q 2878 531 3122 666 
L 3122 134 
Q 2881 22 2623 -34 
Q 2366 -91 2075 -91 
Q 1284 -91 818 406 
Q 353 903 353 1747 
Q 353 2603 823 3093 
Q 1294 3584 2113 3584 
Q 2378 3584 2631 3529 
Q 2884 3475 3122 3366 
z
" transform="scale(0.015625)"/>
       <path id="DejaVuSans-42" d="M 3263 -1063 
L 3263 -1509 
L -63 -1509 
L -63 -1063 
L 3263 -1063 
z
" transform="scale(0.015625)"/>
       <path id="DejaVuSans-56" d="M 2834 3397 
L 2834 2853 
Q 2591 2978 2328 3040 
Q 2066 3103 1784 3103 
Q 1356 3103 1142 2972 
Q 928 2841 928 2578 
Q 928 2378 1081 2264 
Q 1234 2150 1697 2047 
L 1894 2003 
Q 2506 1872 2764 1633 
Q 3022 1394 3022 966 
Q 3022 478 2636 193 
Q 2250 -91 1575 -91 
Q 1294 -91 989 -36 
Q 684 19 347 128 
L 347 722 
Q 666 556 975 473 
Q 1284 391 1588 391 
Q 1994 391 2212 530 
Q 2431 669 2431 922 
Q 2431 1156 2273 1281 
Q 2116 1406 1581 1522 
L 1381 1569 
Q 847 1681 609 1914 
Q 372 2147 372 2553 
Q 372 3047 722 3315 
Q 1072 3584 1716 3584 
Q 2034 3584 2315 3537 
Q 2597 3491 2834 3397 
z
" transform="scale(0.015625)"/>
       <path id="DejaVuSans-55" d="M 2631 2963 
Q 2534 3019 2420 3045 
Q 2306 3072 2169 3072 
Q 1681 3072 1420 2755 
Q 1159 2438 1159 1844 
L 1159 0 
L 581 0 
L 581 3500 
L 1159 3500 
L 1159 2956 
Q 1341 3275 1631 3429 
Q 1922 3584 2338 3584 
Q 2397 3584 2469 3576 
Q 2541 3569 2628 3553 
L 2631 2963 
z
" transform="scale(0.015625)"/>
       <path id="DejaVuSans-51" d="M 3513 2113 
L 3513 0 
L 2938 0 
L 2938 2094 
Q 2938 2591 2744 2837 
Q 2550 3084 2163 3084 
Q 1697 3084 1428 2787 
Q 1159 2491 1159 1978 
L 1159 0 
L 581 0 
L 581 3500 
L 1159 3500 
L 1159 2956 
Q 1366 3272 1645 3428 
Q 1925 3584 2291 3584 
Q 2894 3584 3203 3211 
Q 3513 2838 3513 2113 
z
" transform="scale(0.015625)"/>
       <path id="DejaVuSans-4a" d="M 2906 1791 
Q 2906 2416 2648 2759 
Q 2391 3103 1925 3103 
Q 1463 3103 1205 2759 
Q 947 2416 947 1791 
Q 947 1169 1205 825 
Q 1463 481 1925 481 
Q 2391 481 2648 825 
Q 2906 1169 2906 1791 
z
M 3481 434 
Q 3481 -459 3084 -895 
Q 2688 -1331 1869 -1331 
Q 1566 -1331 1297 -1286 
Q 1028 -1241 775 -1147 
L 775 -588 
Q 1028 -725 1275 -790 
Q 1522 -856 1778 -856 
Q 2344 -856 2625 -561 
Q 2906 -266 2906 331 
L 2906 616 
Q 2728 306 2450 153 
Q 2172 0 1784 0 
Q 1141 0 747 490 
Q 353 981 353 1791 
Q 353 2603 747 3093 
Q 1141 3584 1784 3584 
Q 2172 3584 2450 3431 
Q 2728 3278 2906 2969 
L 2906 3500 
L 3481 3500 
L 3481 434 
z
" transform="scale(0.015625)"/>
      </defs>
      <use xlink:href="#DejaVuSans-53"/>
      <use xlink:href="#DejaVuSans-52" transform="translate(63.484375 0)"/>
      <use xlink:href="#DejaVuSans-4f" transform="translate(124.671875 0)"/>
      <use xlink:href="#DejaVuSans-4c" transform="translate(152.453125 0)"/>
      <use xlink:href="#DejaVuSans-57" transform="translate(180.234375 0)"/>
      <use xlink:href="#DejaVuSans-4c" transform="translate(219.4375 0)"/>
      <use xlink:href="#DejaVuSans-46" transform="translate(247.21875 0)"/>
      <use xlink:href="#DejaVuSans-44" transform="translate(302.203125 0)"/>
      <use xlink:href="#DejaVuSans-4f" transform="translate(363.484375 0)"/>
      <use xlink:href="#DejaVuSans-42" transform="translate(391.265625 0)"/>
      <use xlink:href="#DejaVuSans-56" transform="translate(441.265625 0)"/>
      <use xlink:href="#DejaVuSans-57" transform="translate(493.359375 0)"/>
      <use xlink:href="#DejaVuSans-55" transform="translate(532.5625 0)"/>
      <use xlink:href="#DejaVuSans-48" transform="translate(571.46875 0)"/>
      <use xlink:href="#DejaVuSans-51" transform="translate(633 0)"/>
      <use xlink:href="#DejaVuSans-4a" transform="translate(696.375 0)"/>
      <use xlink:href="#DejaVuSans-57" transform="translate(759.859375 0)"/>
      <use xlink:href="#DejaVuSans-4b" transform="translate(799.0625 0)"/>
     </g>
    </g>
   </g>
   <g id="line2d_64">
    <path d="M 81.094964 304.617763 
L 85.799581 297.566539 
L 90.504197 292.097186 
L 95.208814 275.107821 
L 99.91343 265.16968 
L 104.618047 252.649103 
L 109.322663 244.40201 
L 114.02728 238.242175 
L 118.731896 231.190952 
L 123.436513 225.721598 
L 128.141129 221.252811 
L 132.845746 210.423281 
L 137.550362 202.938233 
L 142.254979 197.212223 
L 146.959595 181.266015 
L 151.664212 171.685697 
L 156.368828 164.815364 
L 161.073445 157.764141 
L 165.778061 152.294787 
L 170.482678 147.826 
L 175.187294 142.907466 
L 179.891911 138.812892 
L 184.596527 135.305423 
L 189.301143 132.237615 
L 194.00576 128.874751 
L 198.710376 125.918102 
L 203.414993 123.280023 
L 208.119609 120.898494 
L 212.824226 118.728009 
L 217.528842 116.354174 
L 222.233459 114.19008 
L 226.938075 112.201655 
L 231.642692 110.362507 
L 236.347308 108.65178 
L 241.051925 107.052704 
L 245.756541 105.31011 
L 250.461158 103.683225 
L 255.165774 102.157637 
L 259.870391 100.721466 
L 264.575007 99.364809 
L 269.279624 97.548388 
L 273.98424 95.85734 
L 278.688857 94.275471 
L 283.393473 92.789533 
L 288.098089 90.716991 
L 292.802706 88.806117 
L 297.507322 87.033503 
L 302.211939 85.380486 
L 306.916555 83.336763 
L 311.621172 81.000666 
L 316.325788 78.867976 
L 321.030405 76.906091 
L 325.735021 75.08967 
L 330.439638 73.398622 
L 335.144254 71.816753 
L 339.848871 70.330814 
L 344.553487 68.929835 
L 349.258104 67.604622 
L 353.96272 66.347399 
L 358.667337 65.151529 
L 363.371953 64.011301 
L 368.07657 62.921768 
L 372.781186 61.878612 
L 377.485803 60.878045 
L 382.190419 59.916727 
L 386.895036 58.991694 
L 391.599652 58.100306 
L 396.304268 57.240201 
L 401.008885 56.409258 
L 405.713501 55.605564 
L 410.418118 54.827388 
L 415.122734 54.07316 
L 419.827351 53.34145 
L 424.531967 52.630952 
L 429.236584 51.94047 
L 433.9412 51.268909 
L 438.645817 50.615257 
L 443.350433 49.978586 
L 448.05505 49.358035 
L 452.759666 48.752807 
L 457.464283 48.162165 
L 462.168899 47.585421 
L 466.873516 47.021937 
L 471.578132 46.471117 
L 476.282749 45.932403 
L 480.987365 45.405276 
L 485.691982 44.889247 
L 490.396598 44.383859 
L 495.101214 43.888681 
L 499.805831 43.403309 
L 504.510447 42.927363 
L 509.215064 42.460482 
L 513.91968 42.002329 
L 518.624297 41.552583 
L 523.328913 41.110941 
L 528.03353 40.677116 
L 532.738146 40.250836 
L 537.442763 39.831844 
L 542.147379 39.419893 
" clip-path="url(#peeb2245523)" style="fill: none; stroke: #1f77b4; stroke-linecap: square"/>
    <defs>
     <path id="m0e6668bbf8" d="M 0 1.5 
C 0.397805 1.5 0.77937 1.341951 1.06066 1.06066 
C 1.341951 0.77937 1.5 0.397805 1.5 0 
C 1.5 -0.397805 1.341951 -0.77937 1.06066 -1.06066 
C 0.77937 -1.341951 0.397805 -1.5 0 -1.5 
C -0.397805 -1.5 -0.77937 -1.341951 -1.06066 -1.06066 
C -1.341951 -0.77937 -1.5 -0.397805 -1.5 0 
C -1.5 0.397805 -1.341951 0.77937 -1.06066 1.06066 
C -0.77937 1.341951 -0.397805 1.5 0 1.5 
z
" style="stroke: #1f77b4"/>
    </defs>
    <g clip-path="url(#peeb2245523)">
     <use xlink:href="#m0e6668bbf8" x="81.094964" y="304.617763" style="fill: #1f77b4; stroke: #1f77b4"/>
     <use xlink:href="#m0e6668bbf8" x="85.799581" y="297.566539" style="fill: #1f77b4; stroke: #1f77b4"/>
     <use xlink:href="#m0e6668bbf8" x="90.504197" y="292.097186" style="fill: #1f77b4; stroke: #1f77b4"/>
     <use xlink:href="#m0e6668bbf8" x="95.208814" y="275.107821" style="fill: #1f77b4; stroke: #1f77b4"/>
     <use xlink:href="#m0e6668bbf8" x="99.91343" y="265.16968" style="fill: #1f77b4; stroke: #1f77b4"/>
     <use xlink:href="#m0e6668bbf8" x="104.618047" y="252.649103" style="fill: #1f77b4; stroke: #1f77b4"/>
     <use xlink:href="#m0e6668bbf8" x="109.322663" y="244.40201" style="fill: #1f77b4; stroke: #1f77b4"/>
     <use xlink:href="#m0e6668bbf8" x="114.02728" y="238.242175" style="fill: #1f77b4; stroke: #1f77b4"/>
     <use xlink:href="#m0e6668bbf8" x="118.731896" y="231.190952" style="fill: #1f77b4; stroke: #1f77b4"/>
     <use xlink:href="#m0e6668bbf8" x="123.436513" y="225.721598" style="fill: #1f77b4; stroke: #1f77b4"/>
     <use xlink:href="#m0e6668bbf8" x="128.141129" y="221.252811" style="fill: #1f77b4; stroke: #1f77b4"/>
     <use xlink:href="#m0e6668bbf8" x="132.845746" y="210.423281" style="fill: #1f77b4; stroke: #1f77b4"/>
     <use xlink:href="#m0e6668bbf8" x="137.550362" y="202.938233" style="fill: #1f77b4; stroke: #1f77b4"/>
     <use xlink:href="#m0e6668bbf8" x="142.254979" y="197.212223" style="fill: #1f77b4; stroke: #1f77b4"/>
     <use xlink:href="#m0e6668bbf8" x="146.959595" y="181.266015" style="fill: #1f77b4; stroke: #1f77b4"/>
     <use xlink:href="#m0e6668bbf8" x="151.664212" y="171.685697" style="fill: #1f77b4; stroke: #1f77b4"/>
     <use xlink:href="#m0e6668bbf8" x="156.368828" y="164.815364" style="fill: #1f77b4; stroke: #1f77b4"/>
     <use xlink:href="#m0e6668bbf8" x="161.073445" y="157.764141" style="fill: #1f77b4; stroke: #1f77b4"/>
     <use xlink:href="#m0e6668bbf8" x="165.778061" y="152.294787" style="fill: #1f77b4; stroke: #1f77b4"/>
     <use xlink:href="#m0e6668bbf8" x="170.482678" y="147.826" style="fill: #1f77b4; stroke: #1f77b4"/>
     <use xlink:href="#m0e6668bbf8" x="175.187294" y="142.907466" style="fill: #1f77b4; stroke: #1f77b4"/>
     <use xlink:href="#m0e6668bbf8" x="179.891911" y="138.812892" style="fill: #1f77b4; stroke: #1f77b4"/>
     <use xlink:href="#m0e6668bbf8" x="184.596527" y="135.305423" style="fill: #1f77b4; stroke: #1f77b4"/>
     <use xlink:href="#m0e6668bbf8" x="189.301143" y="132.237615" style="fill: #1f77b4; stroke: #1f77b4"/>
     <use xlink:href="#m0e6668bbf8" x="194.00576" y="128.874751" style="fill: #1f77b4; stroke: #1f77b4"/>
     <use xlink:href="#m0e6668bbf8" x="198.710376" y="125.918102" style="fill: #1f77b4; stroke: #1f77b4"/>
     <use xlink:href="#m0e6668bbf8" x="203.414993" y="123.280023" style="fill: #1f77b4; stroke: #1f77b4"/>
     <use xlink:href="#m0e6668bbf8" x="208.119609" y="120.898494" style="fill: #1f77b4; stroke: #1f77b4"/>
     <use xlink:href="#m0e6668bbf8" x="212.824226" y="118.728009" style="fill: #1f77b4; stroke: #1f77b4"/>
     <use xlink:href="#m0e6668bbf8" x="217.528842" y="116.354174" style="fill: #1f77b4; stroke: #1f77b4"/>
     <use xlink:href="#m0e6668bbf8" x="222.233459" y="114.19008" style="fill: #1f77b4; stroke: #1f77b4"/>
     <use xlink:href="#m0e6668bbf8" x="226.938075" y="112.201655" style="fill: #1f77b4; stroke: #1f77b4"/>
     <use xlink:href="#m0e6668bbf8" x="231.642692" y="110.362507" style="fill: #1f77b4; stroke: #1f77b4"/>
     <use xlink:href="#m0e6668bbf8" x="236.347308" y="108.65178" style="fill: #1f77b4; stroke: #1f77b4"/>
     <use xlink:href="#m0e6668bbf8" x="241.051925" y="107.052704" style="fill: #1f77b4; stroke: #1f77b4"/>
     <use xlink:href="#m0e6668bbf8" x="245.756541" y="105.31011" style="fill: #1f77b4; stroke: #1f77b4"/>
     <use xlink:href="#m0e6668bbf8" x="250.461158" y="103.683225" style="fill: #1f77b4; stroke: #1f77b4"/>
     <use xlink:href="#m0e6668bbf8" x="255.165774" y="102.157637" style="fill: #1f77b4; stroke: #1f77b4"/>
     <use xlink:href="#m0e6668bbf8" x="259.870391" y="100.721466" style="fill: #1f77b4; stroke: #1f77b4"/>
     <use xlink:href="#m0e6668bbf8" x="264.575007" y="99.364809" style="fill: #1f77b4; stroke: #1f77b4"/>
     <use xlink:href="#m0e6668bbf8" x="269.279624" y="97.548388" style="fill: #1f77b4; stroke: #1f77b4"/>
     <use xlink:href="#m0e6668bbf8" x="273.98424" y="95.85734" style="fill: #1f77b4; stroke: #1f77b4"/>
     <use xlink:href="#m0e6668bbf8" x="278.688857" y="94.275471" style="fill: #1f77b4; stroke: #1f77b4"/>
     <use xlink:href="#m0e6668bbf8" x="283.393473" y="92.789533" style="fill: #1f77b4; stroke: #1f77b4"/>
     <use xlink:href="#m0e6668bbf8" x="288.098089" y="90.716991" style="fill: #1f77b4; stroke: #1f77b4"/>
     <use xlink:href="#m0e6668bbf8" x="292.802706" y="88.806117" style="fill: #1f77b4; stroke: #1f77b4"/>
     <use xlink:href="#m0e6668bbf8" x="297.507322" y="87.033503" style="fill: #1f77b4; stroke: #1f77b4"/>
     <use xlink:href="#m0e6668bbf8" x="302.211939" y="85.380486" style="fill: #1f77b4; stroke: #1f77b4"/>
     <use xlink:href="#m0e6668bbf8" x="306.916555" y="83.336763" style="fill: #1f77b4; stroke: #1f77b4"/>
     <use xlink:href="#m0e6668bbf8" x="311.621172" y="81.000666" style="fill: #1f77b4; stroke: #1f77b4"/>
     <use xlink:href="#m0e6668bbf8" x="316.325788" y="78.867976" style="fill: #1f77b4; stroke: #1f77b4"/>
     <use xlink:href="#m0e6668bbf8" x="321.030405" y="76.906091" style="fill: #1f77b4; stroke: #1f77b4"/>
     <use xlink:href="#m0e6668bbf8" x="325.735021" y="75.08967" style="fill: #1f77b4; stroke: #1f77b4"/>
     <use xlink:href="#m0e6668bbf8" x="330.439638" y="73.398622" style="fill: #1f77b4; stroke: #1f77b4"/>
     <use xlink:href="#m0e6668bbf8" x="335.144254" y="71.816753" style="fill: #1f77b4; stroke: #1f77b4"/>
     <use xlink:href="#m0e6668bbf8" x="339.848871" y="70.330814" style="fill: #1f77b4; stroke: #1f77b4"/>
     <use xlink:href="#m0e6668bbf8" x="344.553487" y="68.929835" style="fill: #1f77b4; stroke: #1f77b4"/>
     <use xlink:href="#m0e6668bbf8" x="349.258104" y="67.604622" style="fill: #1f77b4; stroke: #1f77b4"/>
     <use xlink:href="#m0e6668bbf8" x="353.96272" y="66.347399" style="fill: #1f77b4; stroke: #1f77b4"/>
     <use xlink:href="#m0e6668bbf8" x="358.667337" y="65.151529" style="fill: #1f77b4; stroke: #1f77b4"/>
     <use xlink:href="#m0e6668bbf8" x="363.371953" y="64.011301" style="fill: #1f77b4; stroke: #1f77b4"/>
     <use xlink:href="#m0e6668bbf8" x="368.07657" y="62.921768" style="fill: #1f77b4; stroke: #1f77b4"/>
     <use xlink:href="#m0e6668bbf8" x="372.781186" y="61.878612" style="fill: #1f77b4; stroke: #1f77b4"/>
     <use xlink:href="#m0e6668bbf8" x="377.485803" y="60.878045" style="fill: #1f77b4; stroke: #1f77b4"/>
     <use xlink:href="#m0e6668bbf8" x="382.190419" y="59.916727" style="fill: #1f77b4; stroke: #1f77b4"/>
     <use xlink:href="#m0e6668bbf8" x="386.895036" y="58.991694" style="fill: #1f77b4; stroke: #1f77b4"/>
     <use xlink:href="#m0e6668bbf8" x="391.599652" y="58.100306" style="fill: #1f77b4; stroke: #1f77b4"/>
     <use xlink:href="#m0e6668bbf8" x="396.304268" y="57.240201" style="fill: #1f77b4; stroke: #1f77b4"/>
     <use xlink:href="#m0e6668bbf8" x="401.008885" y="56.409258" style="fill: #1f77b4; stroke: #1f77b4"/>
     <use xlink:href="#m0e6668bbf8" x="405.713501" y="55.605564" style="fill: #1f77b4; stroke: #1f77b4"/>
     <use xlink:href="#m0e6668bbf8" x="410.418118" y="54.827388" style="fill: #1f77b4; stroke: #1f77b4"/>
     <use xlink:href="#m0e6668bbf8" x="415.122734" y="54.07316" style="fill: #1f77b4; stroke: #1f77b4"/>
     <use xlink:href="#m0e6668bbf8" x="419.827351" y="53.34145" style="fill: #1f77b4; stroke: #1f77b4"/>
     <use xlink:href="#m0e6668bbf8" x="424.531967" y="52.630952" style="fill: #1f77b4; stroke: #1f77b4"/>
     <use xlink:href="#m0e6668bbf8" x="429.236584" y="51.94047" style="fill: #1f77b4; stroke: #1f77b4"/>
     <use xlink:href="#m0e6668bbf8" x="433.9412" y="51.268909" style="fill: #1f77b4; stroke: #1f77b4"/>
     <use xlink:href="#m0e6668bbf8" x="438.645817" y="50.615257" style="fill: #1f77b4; stroke: #1f77b4"/>
     <use xlink:href="#m0e6668bbf8" x="443.350433" y="49.978586" style="fill: #1f77b4; stroke: #1f77b4"/>
     <use xlink:href="#m0e6668bbf8" x="448.05505" y="49.358035" style="fill: #1f77b4; stroke: #1f77b4"/>
     <use xlink:href="#m0e6668bbf8" x="452.759666" y="48.752807" style="fill: #1f77b4; stroke: #1f77b4"/>
     <use xlink:href="#m0e6668bbf8" x="457.464283" y="48.162165" style="fill: #1f77b4; stroke: #1f77b4"/>
     <use xlink:href="#m0e6668bbf8" x="462.168899" y="47.585421" style="fill: #1f77b4; stroke: #1f77b4"/>
     <use xlink:href="#m0e6668bbf8" x="466.873516" y="47.021937" style="fill: #1f77b4; stroke: #1f77b4"/>
     <use xlink:href="#m0e6668bbf8" x="471.578132" y="46.471117" style="fill: #1f77b4; stroke: #1f77b4"/>
     <use xlink:href="#m0e6668bbf8" x="476.282749" y="45.932403" style="fill: #1f77b4; stroke: #1f77b4"/>
     <use xlink:href="#m0e6668bbf8" x="480.987365" y="45.405276" style="fill: #1f77b4; stroke: #1f77b4"/>
     <use xlink:href="#m0e6668bbf8" x="485.691982" y="44.889247" style="fill: #1f77b4; stroke: #1f77b4"/>
     <use xlink:href="#m0e6668bbf8" x="490.396598" y="44.383859" style="fill: #1f77b4; stroke: #1f77b4"/>
     <use xlink:href="#m0e6668bbf8" x="495.101214" y="43.888681" style="fill: #1f77b4; stroke: #1f77b4"/>
     <use xlink:href="#m0e6668bbf8" x="499.805831" y="43.403309" style="fill: #1f77b4; stroke: #1f77b4"/>
     <use xlink:href="#m0e6668bbf8" x="504.510447" y="42.927363" style="fill: #1f77b4; stroke: #1f77b4"/>
     <use xlink:href="#m0e6668bbf8" x="509.215064" y="42.460482" style="fill: #1f77b4; stroke: #1f77b4"/>
     <use xlink:href="#m0e6668bbf8" x="513.91968" y="42.002329" style="fill: #1f77b4; stroke: #1f77b4"/>
     <use xlink:href="#m0e6668bbf8" x="518.624297" y="41.552583" style="fill: #1f77b4; stroke: #1f77b4"/>
     <use xlink:href="#m0e6668bbf8" x="523.328913" y="41.110941" style="fill: #1f77b4; stroke: #1f77b4"/>
     <use xlink:href="#m0e6668bbf8" x="528.03353" y="40.677116" style="fill: #1f77b4; stroke: #1f77b4"/>
     <use xlink:href="#m0e6668bbf8" x="532.738146" y="40.250836" style="fill: #1f77b4; stroke: #1f77b4"/>
     <use xlink:href="#m0e6668bbf8" x="537.442763" y="39.831844" style="fill: #1f77b4; stroke: #1f77b4"/>
     <use xlink:href="#m0e6668bbf8" x="542.147379" y="39.419893" style="fill: #1f77b4; stroke: #1f77b4"/>
    </g>
   </g>
   <g id="patch_3">
    <path d="M 58.042344 317.877656 
L 58.042344 26.16 
" style="fill: none; stroke: #000000; stroke-width: 0.8; stroke-linejoin: miter; stroke-linecap: square"/>
   </g>
   <g id="patch_4">
    <path d="M 565.2 317.877656 
L 565.2 26.16 
" style="fill: none; stroke: #000000; stroke-width: 0.8; stroke-linejoin: miter; stroke-linecap: square"/>
   </g>
   <g id="patch_5">
    <path d="M 58.042344 317.877656 
L 565.2 317.877656 
" style="fill: none; stroke: #000000; stroke-width: 0.8; stroke-linejoin: miter; stroke-linecap: square"/>
   </g>
   <g id="patch_6">
    <path d="M 58.042344 26.16 
L 565.2 26.16 
" style="fill: none; stroke: #000000; stroke-width: 0.8; stroke-linejoin: miter; stroke-linecap: square"/>
   </g>
   <g id="text_14">
    <!-- political_strength vs wealth -->
    <g transform="translate(229.287109 20.16) scale(0.12 -0.12)">
     <defs>
      <path id="DejaVuSans-3" transform="scale(0.015625)"/>
      <path id="DejaVuSans-59" d="M 191 3500 
L 800 3500 
L 1894 563 
L 2988 3500 
L 3597 3500 
L 2284 0 
L 1503 0 
L 191 3500 
z
" transform="scale(0.015625)"/>
      <path id="DejaVuSans-5a" d="M 269 3500 
L 844 3500 
L 1563 769 
L 2278 3500 
L 2956 3500 
L 3675 769 
L 4391 3500 
L 4966 3500 
L 4050 0 
L 3372 0 
L 2619 2869 
L 1863 0 
L 1184 0 
L 269 3500 
z
" transform="scale(0.015625)"/>
     </defs>
     <use xlink:href="#DejaVuSans-53"/>
     <use xlink:href="#DejaVuSans-52" transform="translate(63.484375 0)"/>
     <use xlink:href="#DejaVuSans-4f" transform="translate(124.671875 0)"/>
     <use xlink:href="#DejaVuSans-4c" transform="translate(152.453125 0)"/>
     <use xlink:href="#DejaVuSans-57" transform="translate(180.234375 0)"/>
     <use xlink:href="#DejaVuSans-4c" transform="translate(219.4375 0)"/>
     <use xlink:href="#DejaVuSans-46" transform="translate(247.21875 0)"/>
     <use xlink:href="#DejaVuSans-44" transform="translate(302.203125 0)"/>
     <use xlink:href="#DejaVuSans-4f" transform="translate(363.484375 0)"/>
     <use xlink:href="#DejaVuSans-42" transform="translate(391.265625 0)"/>
     <use xlink:href="#DejaVuSans-56" transform="translate(441.265625 0)"/>
     <use xlink:href="#DejaVuSans-57" transform="translate(493.359375 0)"/>
     <use xlink:href="#DejaVuSans-55" transform="translate(532.5625 0)"/>
     <use xlink:href="#DejaVuSans-48" transform="translate(571.46875 0)"/>
     <use xlink:href="#DejaVuSans-51" transform="translate(633 0)"/>
     <use xlink:href="#DejaVuSans-4a" transform="translate(696.375 0)"/>
     <use xlink:href="#DejaVuSans-57" transform="translate(759.859375 0)"/>
     <use xlink:href="#DejaVuSans-4b" transform="translate(799.0625 0)"/>
     <use xlink:href="#DejaVuSans-3" transform="translate(862.4375 0)"/>
     <use xlink:href="#DejaVuSans-59" transform="translate(894.21875 0)"/>
     <use xlink:href="#DejaVuSans-56" transform="translate(953.40625 0)"/>
     <use xlink:href="#DejaVuSans-3" transform="translate(1005.5 0)"/>
     <use xlink:href="#DejaVuSans-5a" transform="translate(1037.28125 0)"/>
     <use xlink:href="#DejaVuSans-48" transform="translate(1119.0625 0)"/>
     <use xlink:href="#DejaVuSans-44" transform="translate(1180.59375 0)"/>
     <use xlink:href="#DejaVuSans-4f" transform="translate(1241.875 0)"/>
     <use xlink:href="#DejaVuSans-57" transform="translate(1269.65625 0)"/>
     <use xlink:href="#DejaVuSans-4b" transform="translate(1308.859375 0)"/>
    </g>
   </g>
  </g>
 </g>
 <defs>
  <clipPath id="peeb2245523">
   <rect x="58.042344" y="26.16" width="507.157656" height="291.717656"/>
  </clipPath>
 </defs>
</svg>
